<?xml version="1.0" standalone="no"?>
<!DOCTYPE svg PUBLIC "-//W3C//DTD SVG 20010904//EN"
 "http://www.w3.org/TR/2001/REC-SVG-20010904/DTD/svg10.dtd">
<svg version="1.0" xmlns="http://www.w3.org/2000/svg"
 width="424.000000pt" height="532.000000pt" viewBox="0 0 424.000000 532.000000"
 preserveAspectRatio="xMidYMid meet">

<g transform="translate(0.000000,532.000000) scale(0.100000,-0.100000)"
fill="#000000" stroke="none">
<path d="M0 5186 c0 -84 4 -137 11 -141 5 -4 15 -19 20 -33 6 -15 13 -22 17
-17 8 12 42 12 59 2 7 -4 22 -2 33 5 18 11 23 10 35 -6 9 -12 22 -17 39 -14
18 4 27 -1 33 -15 l9 -21 21 21 20 20 22 -23 c28 -29 92 -47 134 -39 31 7 31
6 12 -9 -20 -15 -20 -15 1 -16 12 0 27 -7 34 -15 20 -24 29 -18 36 24 6 38 7
39 35 29 19 -7 30 -19 34 -39 5 -20 12 -29 23 -28 10 2 36 -3 59 -11 33 -10
45 -10 57 -1 16 14 56 -1 56 -20 0 -6 5 -7 10 -4 6 3 10 2 10 -2 0 -5 16 -17
36 -28 26 -14 37 -16 43 -7 5 9 22 9 69 0 33 -6 59 -15 56 -20 -3 -4 -1 -8 4
-8 10 0 26 29 24 41 -1 4 8 5 19 2 16 -4 20 -12 17 -37 -3 -30 -2 -31 44 -34
44 -3 47 -1 63 31 15 33 18 34 68 32 29 -1 55 -3 60 -4 12 -2 8 -19 -9 -35 -8
-9 -11 -16 -5 -16 5 0 13 5 16 10 5 8 12 7 23 -2 9 -7 13 -8 9 -2 -4 7 0 18 9
25 13 10 17 10 25 -2 5 -8 9 -22 9 -31 0 -17 10 -22 38 -19 8 1 20 -3 28 -10
8 -6 33 -13 56 -15 22 -2 56 -13 74 -23 29 -18 35 -18 48 -6 8 8 19 15 25 15
6 0 11 6 11 13 0 6 5 4 11 -5 5 -10 17 -18 24 -18 8 0 15 -4 15 -9 0 -5 12
-14 28 -20 32 -14 64 -32 85 -49 12 -10 16 -10 21 0 3 7 3 2 0 -11 -5 -20 -3
-23 11 -18 9 4 18 7 20 7 2 0 1 9 -2 19 -4 16 2 20 37 26 44 8 65 1 31 -10
-13 -4 -21 -15 -21 -30 0 -20 6 -24 50 -30 27 -4 52 -11 56 -16 3 -5 36 -9 75
-9 66 0 91 -12 49 -23 -11 -3 -20 -12 -20 -20 0 -20 17 -31 25 -17 10 16 38
12 31 -5 -4 -11 1 -15 19 -15 14 0 25 -5 25 -11 0 -7 12 -9 33 -5 17 3 37 2
42 -2 17 -12 54 -94 61 -134 9 -53 34 -51 34 3 0 33 3 40 16 35 9 -3 20 -6 26
-6 6 0 8 -6 5 -13 -13 -35 8 -41 136 -38 16 1 27 10 34 29 l11 27 1 -27 c1
-14 -5 -29 -11 -31 -10 -4 -9 -8 2 -16 22 -16 54 -13 95 6 31 15 37 15 45 3 7
-11 10 -12 10 -2 0 7 -7 21 -16 29 -11 12 -12 18 -4 23 20 13 48 -1 54 -26 4
-15 14 -24 26 -24 10 0 22 -4 25 -10 3 -5 15 -10 25 -10 12 0 20 -8 22 -22 2
-19 10 -24 42 -26 28 -2 47 -11 62 -29 21 -24 23 -25 45 -9 13 9 34 16 47 16
20 0 21 -3 12 -21 -14 -25 -8 -32 25 -34 15 0 25 5 25 13 0 7 14 -1 30 -18 26
-27 36 -31 76 -29 26 2 48 9 53 17 5 8 20 12 41 10 27 -2 36 -8 40 -28 5 -20
12 -24 35 -22 15 2 31 -1 34 -6 6 -10 98 -52 112 -52 17 0 9 30 -8 31 -13 0
-14 2 -4 6 7 3 23 -6 36 -21 13 -15 29 -24 37 -21 8 3 31 -3 50 -15 34 -20 68
-19 68 2 0 7 5 6 13 -1 8 -6 18 -7 22 -3 5 4 6 0 3 -8 -7 -20 24 -78 40 -72
18 6 14 26 -9 40 -28 18 -20 44 14 49 21 3 35 -4 61 -32 18 -19 41 -35 50 -35
10 0 19 -11 22 -29 7 -35 53 -61 106 -61 22 0 37 -6 46 -20 7 -11 20 -20 30
-20 14 0 15 -2 2 -10 -12 -8 -12 -10 5 -11 11 0 28 -2 38 -4 16 -3 17 39 17
771 l0 774 -2120 0 -2120 0 0 -134z m1090 -356 c0 -5 -4 -10 -10 -10 -5 0 -10
5 -10 10 0 6 5 10 10 10 6 0 10 -4 10 -10z m1480 -504 c0 -19 -6 -24 -37 -29
-20 -4 -39 -4 -42 -2 -8 8 7 18 31 20 37 4 38 4 38 20 0 8 2 15 5 15 3 0 5
-11 5 -24z m38 -9 c-13 -13 -25 -20 -27 -15 -1 5 5 16 15 23 30 23 37 17 12
-8z m1562 -467 c0 -11 -4 -20 -10 -20 -5 0 -10 9 -10 20 0 11 5 20 10 20 6 0
10 -9 10 -20z m40 -19 c0 -6 -4 -13 -10 -16 -5 -3 -10 1 -10 9 0 9 5 16 10 16
6 0 10 -4 10 -9z"/>
<path d="M920 4780 c0 -5 5 -10 10 -10 6 0 10 5 10 10 0 6 -4 10 -10 10 -5 0
-10 -4 -10 -10z"/>
<path d="M1651 4644 c0 -11 3 -14 6 -6 3 7 2 16 -1 19 -3 4 -6 -2 -5 -13z"/>
<path d="M2680 4230 c0 -5 5 -10 10 -10 6 0 10 5 10 10 0 6 -4 10 -10 10 -5 0
-10 -4 -10 -10z"/>
<path d="M1248 4142 c-20 -20 -25 -31 -18 -42 5 -8 10 -11 10 -6 0 5 9 -3 21
-18 11 -14 19 -34 17 -44 -5 -25 -47 -28 -64 -4 -7 11 -34 29 -59 41 -50 23
-101 21 -140 -5 -11 -8 -27 -14 -37 -14 -11 0 -15 -5 -12 -14 3 -7 -2 -16 -11
-20 -9 -3 -25 -26 -35 -50 -20 -44 -40 -57 -105 -72 -46 -10 -85 -33 -85 -49
0 -8 -4 -15 -9 -15 -17 0 -132 -100 -142 -123 -5 -12 -22 -44 -38 -72 -45 -77
-57 -106 -66 -160 -8 -55 -20 -85 -35 -85 -6 0 -10 9 -10 20 0 11 -4 20 -10
20 -16 0 -11 -47 6 -54 14 -5 13 -9 -3 -30 -11 -13 -25 -42 -33 -65 -8 -24
-27 -51 -45 -66 -25 -19 -31 -30 -28 -49 4 -18 -2 -32 -21 -49 -14 -13 -26
-30 -26 -37 0 -10 -3 -10 -15 0 -9 7 -18 10 -22 7 -3 -4 -13 -1 -21 6 -13 10
-14 8 -7 -13 4 -14 11 -29 15 -35 5 -5 8 -30 8 -55 -1 -54 29 -127 71 -172 17
-19 31 -44 31 -58 0 -19 2 -22 10 -10 5 8 12 11 15 8 4 -4 4 -12 -1 -19 -4 -7
-6 -42 -5 -78 2 -56 8 -74 37 -118 19 -29 40 -56 47 -60 13 -8 72 -94 80 -116
7 -19 100 37 108 65 11 40 49 118 58 118 5 0 12 -10 16 -22 l7 -23 7 24 c3 14
12 26 19 29 7 2 10 -2 6 -12 -3 -9 -2 -16 4 -16 20 0 43 -51 37 -80 -5 -22
-14 -30 -38 -36 -39 -8 -57 -30 -57 -69 0 -76 -16 -109 -67 -136 -89 -46 -101
-54 -148 -99 -83 -80 -120 -117 -142 -146 -12 -16 -51 -60 -86 -97 -36 -38
-82 -98 -102 -133 -38 -65 -57 -77 -73 -48 -8 14 -10 14 -21 0 -8 -9 -20 -16
-27 -16 -12 0 -14 -48 -14 -276 l0 -276 83 85 c48 50 94 88 110 92 42 11 227
-35 227 -56 0 -21 32 -49 56 -49 21 0 53 19 94 55 14 12 38 30 53 40 l28 18
-6 -49 c-5 -39 -2 -56 13 -80 34 -54 59 -51 120 14 30 31 74 84 99 117 64 86
94 97 106 38 8 -41 63 -112 92 -119 14 -3 37 -3 51 0 l26 7 -4 107 -3 106 38
15 c36 13 39 13 63 -10 24 -22 135 -239 178 -349 10 -25 22 -52 27 -60 5 -8
13 -24 18 -35 5 -12 16 -27 24 -34 9 -7 13 -20 10 -28 -4 -10 -2 -14 5 -10 12
8 52 -43 52 -67 0 -8 10 -21 23 -27 23 -13 42 -37 42 -55 0 -6 6 -18 12 -26 7
-8 17 -47 23 -87 12 -82 15 -91 36 -91 8 0 19 -12 25 -27 7 -16 16 -37 21 -49
5 -11 8 -42 6 -70 -3 -44 0 -52 30 -81 17 -18 32 -38 32 -44 0 -7 30 -41 68
-77 37 -36 66 -69 64 -74 -1 -5 2 -7 7 -4 5 4 12 0 14 -6 4 -9 8 -9 14 -3 12
15 34 17 32 3 -3 -28 2 -36 21 -31 11 3 20 9 20 14 0 12 37 12 45 0 3 -6 14
-8 25 -6 14 3 25 -5 35 -25 11 -21 23 -30 47 -32 29 -3 32 -7 33 -33 l0 -30
97 -3 c88 -2 97 -1 91 14 -4 10 0 20 11 26 11 6 15 16 11 29 -4 10 -3 19 2 19
5 0 17 14 26 30 14 23 22 28 35 21 18 -9 80 -9 97 0 6 3 26 6 45 8 19 2 39 9
43 17 4 8 17 14 28 14 11 0 22 6 25 14 3 8 15 11 29 8 14 -2 35 2 47 10 34 22
68 28 68 13 0 -17 22 -25 49 -18 13 3 21 1 21 -6 0 -7 5 -9 10 -6 6 3 10 0 10
-8 0 -8 8 -14 18 -13 23 1 52 29 52 50 0 9 5 16 10 16 6 0 10 -6 10 -14 0 -16
32 -15 37 1 2 5 -2 15 -9 21 -13 11 -18 12 -43 12 -27 0 -16 18 16 25 22 5 34
3 40 -6 5 -8 9 -9 9 -4 0 6 4 4 9 -4 6 -9 35 -14 96 -16 57 -1 90 -6 95 -15 6
-9 9 -9 15 0 4 7 1 16 -6 21 -8 5 -9 9 -4 9 6 0 17 -4 25 -10 9 -5 19 -5 27 2
8 6 26 13 41 15 35 6 74 11 89 12 27 2 51 43 55 95 5 56 30 94 60 88 13 -3 47
35 40 46 -12 16 59 69 78 57 5 -3 12 11 16 32 10 63 27 78 89 77 49 0 71 8 46
18 -5 2 -2 10 7 18 14 13 15 12 9 -3 -4 -11 -1 -20 9 -24 22 -8 27 2 12 26
-11 18 -11 23 2 31 8 5 21 8 28 5 7 -2 22 5 35 18 12 12 26 22 32 23 5 0 16 2
23 2 6 1 12 11 12 22 0 11 9 29 19 39 14 14 16 22 7 31 -8 10 -8 11 1 6 8 -4
15 2 18 17 6 21 13 25 47 25 23 1 45 5 51 11 5 5 16 7 23 4 12 -4 14 24 14
161 l0 166 -27 0 c-15 0 -77 -5 -137 -10 -219 -20 -445 -27 -666 -19 -309 10
-424 30 -559 98 -53 26 -56 29 -87 110 -18 45 -44 131 -58 189 -13 59 -41 175
-60 258 -20 83 -36 165 -36 183 0 29 2 31 37 31 42 0 119 34 132 58 12 24 -5
409 -20 452 -20 54 -89 169 -112 185 -12 8 -29 15 -38 15 -13 0 -18 14 -23 60
-4 34 -19 83 -34 112 -25 49 -27 60 -25 168 2 112 -4 155 -33 213 -12 25 -12
27 9 28 20 1 20 2 -3 8 -18 5 -26 15 -28 36 -2 15 -15 37 -28 47 -19 16 -24
29 -24 66 0 46 -50 184 -84 238 -24 36 -162 135 -179 128 -16 -6 -117 33 -117
46 0 4 7 13 15 20 16 14 20 30 7 30 -5 0 -14 -12 -21 -26 -10 -24 -16 -26 -50
-20 -21 3 -58 15 -83 26 -64 28 -169 51 -244 52 -40 1 -68 6 -75 14 -14 17
-106 59 -172 79 -79 24 -137 19 -169 -13z m175 -18 c92 -24 100 -30 82 -57
-13 -21 -22 -23 -81 -22 -50 1 -70 6 -79 18 -17 23 -28 21 -15 -2 19 -36 10
-46 -15 -18 -26 30 -32 47 -15 47 16 0 12 22 -7 36 -16 12 -13 13 26 14 24 0
71 -7 104 -16z m134 -60 c2 -5 -10 -15 -27 -21 -34 -13 -37 -8 -13 19 17 19
34 20 40 2z m-434 -25 c42 -14 43 -27 4 -49 -23 -13 -28 -13 -45 3 -27 24 -50
23 -28 -2 17 -18 16 -19 -19 -31 -28 -9 -39 -9 -50 0 -24 20 -18 49 11 56 15
4 36 16 46 26 11 11 25 17 31 14 7 -2 29 -10 50 -17z m632 -9 l20 -9 -20 0
c-11 0 -27 4 -35 9 -13 9 -13 10 0 9 8 0 24 -4 35 -9z m-785 -76 c0 -8 -7 -14
-15 -14 -15 0 -21 21 -9 33 10 9 24 -2 24 -19z m1210 -74 c13 -9 13 -10 0 -10
-8 0 -22 5 -30 10 -13 9 -13 10 0 10 8 0 22 -5 30 -10z m97 -65 c36 -32 26
-32 -17 0 -19 14 -29 25 -23 25 7 0 25 -11 40 -25z m-21 -21 c78 -44 134 -129
134 -203 l0 -36 -35 53 c-20 28 -38 52 -41 52 -4 0 1 -11 10 -25 27 -41 18
-41 -24 0 -22 22 -40 49 -40 60 0 12 -9 30 -20 40 -11 10 -17 21 -14 26 3 5
-10 22 -28 39 -31 30 -32 31 -8 25 14 -4 44 -18 66 -31z m-1032 -670 c18 -18
22 -49 5 -38 -7 4 -10 1 -7 -7 3 -8 16 -14 30 -14 14 -1 33 -9 42 -18 10 -9
23 -17 29 -18 7 0 23 -13 36 -30 28 -36 22 -75 -15 -89 -32 -13 -57 -13 -49
-1 3 5 1 12 -5 16 -5 3 -15 -3 -22 -15 -7 -11 -20 -20 -29 -20 -9 0 -22 -7
-29 -15 -7 -8 -22 -15 -34 -15 -12 0 -48 -13 -81 -30 -33 -16 -69 -30 -80 -30
-11 0 -29 -6 -40 -14 -11 -7 -50 -23 -86 -35 -69 -23 -112 -58 -155 -128 -13
-21 -23 -31 -24 -23 0 30 49 134 67 141 25 10 52 42 114 134 29 44 84 111 121
149 l69 69 54 -10 c53 -9 99 -2 55 10 -19 5 -20 8 -8 26 15 25 22 26 42 5z
m100 -69 c-4 -8 -7 -15 -9 -15 -2 0 -5 7 -9 15 -3 9 0 15 9 15 9 0 12 -6 9
-15z m148 -316 c22 -12 44 -58 58 -122 5 -23 19 -85 31 -137 32 -147 35 -185
11 -201 -10 -8 -27 -29 -36 -46 -17 -34 -30 -41 -41 -23 -11 18 -26 11 -66
-30 -66 -67 -47 -140 38 -140 17 0 38 7 47 15 17 18 52 20 62 4 4 -6 8 -32 10
-57 3 -46 21 -92 35 -92 16 0 32 41 20 53 -15 15 -13 48 5 72 14 19 16 19 25
2 6 -9 14 -15 18 -12 5 2 11 -4 14 -15 3 -11 13 -23 24 -27 49 -18 45 -69 -9
-112 -38 -28 -48 -32 -85 -27 -54 7 -100 -12 -154 -64 -48 -46 -111 -64 -122
-36 -4 10 -18 16 -38 16 -30 0 -31 -1 -25 -35 9 -47 -13 -47 -38 0 -12 21 -27
35 -38 35 -11 0 -16 5 -13 11 4 6 -3 9 -20 7 -24 -3 -29 3 -46 44 -10 26 -34
63 -54 83 -19 20 -35 41 -35 45 0 5 -8 16 -17 26 -28 27 -43 84 -37 135 l6 45
-61 53 c-34 29 -61 59 -61 67 0 8 -16 31 -35 51 -40 42 -43 53 -16 53 30 0 51
-11 51 -26 0 -9 6 -11 18 -7 15 6 15 5 3 -10 -19 -24 -5 -34 17 -14 25 23 28
22 28 -10 -1 -27 1 -28 49 -28 28 0 62 3 78 8 20 5 27 4 27 -7 0 -7 -11 -17
-25 -20 -30 -8 -33 -26 -5 -26 11 0 20 4 20 9 0 5 12 11 28 13 15 2 26 8 24
16 -1 6 5 12 13 12 9 0 27 11 41 25 14 14 27 25 30 25 11 0 65 68 83 105 35
74 45 110 49 185 3 59 8 80 25 98 22 24 56 28 89 11z m-503 -173 c-2 -2 -15
-9 -29 -16 -23 -12 -24 -12 -11 3 7 10 20 17 29 17 8 0 13 -2 11 -4z m81 -24
c0 -5 -10 -17 -22 -28 -21 -19 -38 -30 -107 -76 -14 -10 -37 -18 -51 -18 -23
0 -22 3 20 46 25 25 61 54 80 64 36 20 80 26 80 12z m-365 -826 c25 -20 28
-26 16 -40 -19 -23 -23 -21 -49 24 -26 47 -13 53 33 16z m951 -8 c9 -10 -41
-28 -77 -28 -32 0 -41 26 -11 33 25 6 80 3 88 -5z m-144 -78 c-3 -33 -10 -42
-35 -55 -29 -15 -33 -14 -44 2 -16 21 -17 65 -1 81 7 7 28 12 48 12 35 0 36 0
32 -40z m224 -152 c5 -3 22 -8 38 -12 26 -7 28 -10 23 -44 -4 -22 -17 -46 -32
-59 -14 -12 -25 -29 -25 -38 0 -8 -9 -15 -20 -15 -10 0 -23 -6 -27 -14 -9 -15
-28 -19 -81 -17 -26 1 -37 8 -53 36 -12 19 -27 35 -34 35 -7 0 -18 13 -24 28
-15 35 1 87 24 78 8 -3 18 1 22 8 5 8 17 15 27 17 28 6 152 3 162 -3z m614
-1437 l25 -7 -30 -6 c-35 -7 -85 1 -85 13 0 10 54 10 90 0z"/>
<path d="M1667 1993 c-4 -3 -7 -13 -7 -22 1 -13 3 -13 11 2 11 19 8 33 -4 20z"/>
<path d="M3614 3345 c-7 -17 17 -45 38 -45 15 0 8 27 -12 45 -19 17 -20 17
-26 0z"/>
<path d="M3682 3333 c2 -10 10 -18 18 -18 22 0 18 29 -3 33 -14 3 -18 -1 -15
-15z"/>
<path d="M438 1054 c-10 -22 -9 -27 5 -35 13 -8 15 -19 11 -57 -13 -110 -24
-150 -45 -155 -11 -3 -19 -11 -18 -19 4 -18 -5 -83 -47 -338 -20 -118 -34
-228 -31 -245 5 -31 -5 -129 -18 -178 -7 -27 -6 -28 26 -25 l33 3 42 275 c68
439 92 562 118 602 20 30 15 58 -15 97 -29 36 -25 52 11 45 35 -8 38 4 10 34
-29 31 -67 29 -82 -4z"/>
<path d="M2746 130 c-17 -6 -18 -7 -3 -13 9 -3 19 -2 23 4 9 15 2 18 -20 9z"/>
<path d="M4151 44 c-12 -19 -21 -37 -21 -40 0 -2 25 -4 55 -4 63 0 71 15 30
55 -32 33 -39 32 -64 -11z"/>
</g>
</svg>
